<svg width="16" height="16" viewBox="0 0 16 16" fill="none" xmlns="http://www.w3.org/2000/svg">
<path d="M10.0018 12.6668C10.0018 13.7714 9.10634 14.6668 8.00177 14.6668C6.8972 14.6668 6.00177 13.7714 6.00177 12.6668M9.19944 4.1592C9.48976 3.85926 9.66843 3.45057 9.66843 3.00016C9.66843 2.07969 8.92224 1.3335 8.00177 1.3335C7.08129 1.3335 6.3351 2.07969 6.3351 3.00016C6.3351 3.45057 6.51377 3.85926 6.8041 4.1592M12.0018 7.46683C12.0018 6.54741 11.5803 5.66565 10.8302 5.01553C10.08 4.3654 9.06263 4.00016 8.00177 4.00016C6.9409 4.00016 5.92349 4.3654 5.17334 5.01553C4.42319 5.66565 4.00177 6.54741 4.00177 7.46683C4.00177 8.98803 3.62452 10.1006 3.15381 10.8966C2.61733 11.8039 2.34908 12.2576 2.35968 12.3659C2.3718 12.4899 2.39411 12.529 2.49466 12.6026C2.58255 12.6668 3.02411 12.6668 3.90723 12.6668H12.0963C12.9794 12.6668 13.421 12.6668 13.5089 12.6026C13.6094 12.529 13.6317 12.4899 13.6439 12.3659C13.6544 12.2576 13.3862 11.8039 12.8497 10.8966C12.379 10.1006 12.0018 8.98803 12.0018 7.46683Z" stroke="#1C212D" stroke-linecap="round" stroke-linejoin="round"/>
</svg>
