<svg width="16" height="16" viewBox="0 0 16 16" fill="none" xmlns="http://www.w3.org/2000/svg">
<g clip-path="url(#clip0_2431_90824)">
<path d="M1.91866 12.0771C1.94929 11.8015 1.96461 11.6636 2.00631 11.5348C2.04331 11.4205 2.09559 11.3117 2.16173 11.2114C2.23627 11.0984 2.33433 11.0003 2.53045 10.8042L11.3347 2.00004C12.071 1.26366 13.2649 1.26366 14.0013 2.00004C14.7377 2.73642 14.7377 3.93033 14.0013 4.66671L5.19712 13.4709C5.001 13.667 4.90294 13.7651 4.78989 13.8396C4.6896 13.9058 4.58083 13.958 4.46653 13.995C4.3377 14.0367 4.19987 14.0521 3.92421 14.0827L1.66797 14.3334L1.91866 12.0771Z" stroke="#667085" stroke-width="1.5" stroke-linecap="round" stroke-linejoin="round"/>
</g>
<defs>
<clipPath id="clip0_2431_90824">
<rect width="16" height="16" fill="white"/>
</clipPath>
</defs>
</svg>
