<svg width="185" height="45" viewBox="0 0 185 45" fill="none" xmlns="http://www.w3.org/2000/svg">
<path d="M0.00390625 0.453125H8.0009C10.7175 0.453125 15.5395 0.453118 18.6704 4.94152C20.3343 7.21957 20.8912 9.78873 20.8912 12.4256C20.8912 18.9957 17.6279 24.5233 8.45593 24.5233H0.00390625V0.453125ZM6.17398 19.1243H8.81589C13.4171 19.1243 14.7211 15.9357 14.7211 12.5204C14.7501 10.9562 14.3447 9.41457 13.5496 8.06581C12.8297 6.99279 11.5902 5.85207 8.84984 5.85207H6.17398V19.1243Z" fill="#00A89C"/>
<path d="M24.2188 0.453125H32.1173C35.9035 0.453125 38.2534 1.13011 39.5879 2.17605C41.6254 3.73988 42.5253 6.1127 42.5253 8.74956C42.5534 10.2877 42.1334 11.8009 41.3164 13.1059C40.5548 14.2573 39.4624 15.1527 38.1821 15.6751L43.1772 24.5233H36.817L30.5179 12.9096H31.5366C33.102 12.9096 34.44 12.7776 35.2719 12.2563C36.0224 11.7689 36.6302 10.6316 36.6302 9.29791C36.6461 8.74904 36.5228 8.20505 36.2718 7.71631C36.0207 7.22758 35.6499 6.8099 35.1938 6.50198C34.4275 6.07 33.5613 5.84482 32.681 5.84869H30.399V24.5199H24.2188V0.453125Z" fill="#00A89C"/>
<path d="M79.5664 15.5127C78.9153 18.2398 77.3518 20.6644 75.1333 22.3872C72.9149 24.11 70.174 25.0282 67.362 24.9905C65.6984 25.012 64.0471 24.7039 62.5038 24.0842C60.9606 23.4644 59.5562 22.5453 58.3722 21.3802C57.1882 20.215 56.2481 18.8271 55.6065 17.2969C54.9649 15.7667 54.6346 14.1247 54.6348 12.4663C54.6348 6.31925 59.3888 0.00976562 67.2975 0.00976562C74.87 0.00976562 78.9144 5.83182 79.5664 9.60601H73.1144C72.4353 7.81538 70.6016 5.40871 67.2738 5.40871C63.1275 5.40871 60.8218 9.01704 60.8218 12.4358C60.8218 16.078 63.3007 19.5915 67.3145 19.5915C71.1653 19.5915 72.7307 16.3691 73.1246 15.5296L79.5664 15.5127Z" fill="#00A89C"/>
<path d="M82.7676 24.5233V0.453125H88.9343V9.49763H96.8328V0.453125H102.999V24.5233H96.8328V14.8966H88.9343V24.5233H82.7676Z" fill="#00A89C"/>
<path d="M106.33 12.751C106.33 4.87767 112.398 0 119.054 0C126.494 0 131.815 5.78822 131.815 12.4904C131.815 19.1925 126.528 24.9807 119.023 24.9807C111.42 24.9807 106.33 18.9623 106.33 12.795V12.751ZM112.497 12.4565C112.497 16.1325 115.01 19.5818 119.152 19.5818C123.526 19.5818 125.665 15.618 125.665 12.5208C125.665 9.42363 123.543 5.41249 119.105 5.41249C114.83 5.41249 112.514 9.05466 112.514 12.4396L112.497 12.4565Z" fill="#00A89C"/>
<path d="M149.731 15.1234L149.602 0.453125H155.507V24.5233H150.156L140.923 10.0155L141.052 24.5233H135.146V0.453125H140.464L149.731 15.1234Z" fill="#00A89C"/>
<path d="M176.943 8.5097C176.606 7.90518 176.177 7.35695 175.67 6.88494C174.555 5.90314 173.113 5.36985 171.626 5.3888C168.59 5.3888 165.034 7.633 165.034 12.382C165.034 17.4222 168.624 19.6021 171.656 19.6021C172.999 19.644 174.322 19.2691 175.442 18.5291C176.425 17.8696 177.132 16.8755 177.432 15.7331H170.23V10.8317H184.553C184.686 12.5547 184.489 15.3845 183.446 17.7268C181.096 23.0276 175.677 25.0146 171.697 25.0146C164.386 25.0146 158.871 19.3211 158.871 12.3922C158.871 5.20263 164.681 0 171.795 0C177.568 0 182.533 3.86897 183.871 8.51985L176.943 8.5097Z" fill="#00A89C"/>
<path d="M129.854 39.5245V39.2165C129.931 37.1203 130.486 35.0692 131.477 33.2184C132.316 31.5896 133.5 30.162 134.947 29.0346C136.326 27.9853 137.664 27.4606 138.981 27.4606C139.426 27.4385 139.871 27.5185 140.28 27.6946C140.689 27.8706 141.052 28.138 141.341 28.4761C141.842 29.0962 142.103 29.8742 142.078 30.6695C142.048 31.7893 141.647 32.8675 140.937 33.7363C140.567 34.2539 140.085 34.6828 139.528 34.9921C139.327 35.1084 139.101 35.1735 138.869 35.1817C138.675 35.1842 138.483 35.1401 138.309 35.053C138.143 34.972 137.992 34.8645 137.861 34.7348C137.641 34.5439 137.501 34.2785 137.467 33.9902C137.457 33.9061 137.468 33.8209 137.497 33.7416C137.527 33.6622 137.574 33.5908 137.637 33.5332C138.805 32.6937 139.597 31.8317 140.014 30.9471C140.171 30.6314 140.255 30.2842 140.258 29.9316C140.258 29.2547 139.919 28.8992 139.277 28.8992C138.251 28.8992 137.193 29.4566 136.102 30.5714C135.02 31.6972 134.153 33.0092 133.541 34.4437C132.877 35.8227 132.489 37.3173 132.397 38.8441V39.2503C132.397 40.8446 132.737 41.894 133.416 42.3882C133.668 42.5706 133.974 42.6647 134.285 42.6556C134.609 42.6588 134.931 42.6155 135.243 42.5269C135.551 42.4422 135.851 42.3288 136.139 42.1884C136.798 41.818 137.42 41.3862 137.997 40.8988C138.033 40.8554 138.08 40.8219 138.133 40.8013C138.187 40.7808 138.244 40.7739 138.301 40.7814C138.357 40.7888 138.411 40.8102 138.457 40.8438C138.503 40.8773 138.539 40.9218 138.564 40.9732C138.691 41.1621 138.757 41.3854 138.754 41.613C138.781 41.8971 138.724 42.183 138.591 42.4355C138.424 42.6313 138.234 42.8053 138.024 42.9534C137.719 43.173 137.391 43.3592 137.046 43.5086C136.218 43.8898 135.319 44.0928 134.407 44.1043C133.7 44.1288 132.994 44.0221 132.326 43.7895C131.819 43.5924 131.363 43.2848 130.991 42.8891C130.233 42.0655 129.854 40.9439 129.854 39.5245Z" fill="white"/>
<path d="M142.097 43.5716C141.905 43.3677 141.757 43.127 141.662 42.8641C141.546 42.5385 141.49 42.1942 141.499 41.8487C141.52 41.3296 141.608 40.8155 141.76 40.3187C141.934 39.6823 142.158 38.9647 142.44 38.1388L143.339 35.4884C144.614 31.7943 145.351 28.9408 145.55 26.9279C145.611 26.3322 145.89 26.0343 146.423 26.0343C146.712 26.0225 146.996 26.1045 147.234 26.2679C147.414 26.3777 147.563 26.5306 147.668 26.7128C147.773 26.8949 147.831 27.1004 147.835 27.3104C147.806 27.7823 147.738 28.251 147.632 28.7118C147.509 29.2601 147.352 29.8593 147.16 30.5092C146.967 31.1591 146.741 31.8462 146.48 32.5706L145.02 36.9101C144.174 39.3653 143.75 40.9505 143.75 41.6659C143.75 42.0518 143.907 42.2413 144.222 42.2413C144.505 42.2444 144.785 42.1794 145.037 42.0518C145.183 41.9604 145.344 41.8951 145.513 41.8588C145.543 41.8542 145.574 41.8568 145.604 41.8664C145.633 41.8761 145.66 41.8924 145.681 41.9141C145.703 41.9359 145.719 41.9624 145.729 41.9916C145.739 42.0208 145.741 42.0518 145.737 42.0822C145.728 42.4084 145.634 42.7266 145.464 43.0052C145.293 43.2838 145.053 43.5129 144.766 43.6697C144.42 43.9294 144.006 44.0814 143.574 44.1064C143.279 44.1159 142.984 44.0724 142.704 43.9778C142.473 43.8904 142.265 43.7514 142.097 43.5716Z" fill="white"/>
<path d="M151.591 42.021C151.775 42.021 151.87 42.1429 151.87 42.3832C151.848 42.7554 151.692 43.1074 151.432 43.375C151.219 43.6201 150.954 43.8142 150.656 43.9432C150.358 44.0721 150.035 44.1324 149.71 44.1197C149.356 44.1487 149.002 44.0664 148.697 43.8842C148.393 43.7021 148.153 43.4293 148.012 43.1042C147.892 42.8361 147.834 42.5446 147.843 42.2512C147.849 41.8747 147.908 41.5009 148.019 41.141C148.135 40.7325 148.281 40.3026 148.457 39.8513C148.63 39.4011 148.821 38.9442 149.028 38.4974L149.595 37.1434C150.005 36.1414 150.211 35.4814 150.213 35.1632C150.232 34.947 150.197 34.7294 150.111 34.5302C150.054 34.4376 149.98 34.3561 149.894 34.2899L149.68 34.1409C149.641 34.1098 149.611 34.0698 149.592 34.0243C149.573 33.9788 149.566 33.9293 149.571 33.8803C149.575 33.7481 149.627 33.6218 149.717 33.5249C149.823 33.4015 149.952 33.3002 150.097 33.227C150.445 33.0547 150.83 32.9698 151.218 32.9799C152.264 32.9799 152.787 33.253 152.787 33.7991C152.762 34.5545 152.591 35.298 152.284 35.9891C151.951 36.8083 151.667 37.4694 151.432 37.9727L150.797 39.4417C150.328 40.5215 150.091 41.2967 150.091 41.774C150.081 41.8377 150.087 41.9028 150.108 41.9639C150.128 42.025 150.163 42.0804 150.209 42.1258C150.255 42.1712 150.31 42.2053 150.372 42.2253C150.433 42.2453 150.499 42.2507 150.563 42.2411C150.795 42.2521 151.026 42.2129 151.242 42.126C151.35 42.0681 151.469 42.0324 151.591 42.021ZM153.782 30.5123C153.627 30.6759 153.446 30.8121 153.245 30.9151C153.05 31.0196 152.837 31.0852 152.617 31.1081C152.403 31.1331 152.187 31.0979 151.992 31.0065C151.795 30.9147 151.621 30.7806 151.483 30.6139C151.204 30.3226 151.041 29.9399 151.024 29.5375C151.005 29.2544 151.067 28.9717 151.201 28.7217C151.315 28.5444 151.467 28.3942 151.646 28.2816C151.927 28.0779 152.263 27.9603 152.61 27.9432C152.847 27.9379 153.084 27.9595 153.316 28.0075C153.483 28.0511 153.64 28.1233 153.782 28.2207C153.936 28.3062 154.065 28.43 154.157 28.5801C154.248 28.7302 154.299 28.9015 154.305 29.0771C154.314 29.3651 154.265 29.6519 154.159 29.92C154.066 30.1281 153.938 30.3192 153.782 30.4852V30.5123Z" fill="white"/>
<path d="M162.297 34.9943C162.076 34.9943 161.764 35.2042 161.36 35.6273C160.955 36.0504 160.599 36.4329 160.3 36.7815L159.393 37.8681L157.641 40.092C157.227 40.875 156.903 41.5249 156.67 42.0417L156.093 43.2738C155.99 43.5046 155.859 43.7218 155.702 43.9203C155.646 43.9823 155.576 44.0312 155.499 44.0633C155.422 44.0955 155.338 44.1102 155.254 44.1065C155.068 44.1069 154.884 44.0724 154.711 44.005C154.546 43.9429 154.392 43.8549 154.256 43.7443C154.137 43.6581 154.039 43.5465 153.969 43.4176C153.899 43.2888 153.859 43.146 153.852 42.9996C153.891 42.7774 153.97 42.564 154.086 42.3701L154.49 41.5069C154.619 41.253 154.768 40.9247 154.938 40.5287L155.539 39.0698C156.379 36.9779 156.799 35.6239 156.799 35.0078C156.81 34.8699 156.786 34.7315 156.729 34.6051C156.673 34.4787 156.586 34.3682 156.476 34.2835L156.263 34.1345C156.225 34.1027 156.196 34.0624 156.178 34.017C156.16 33.9717 156.153 33.9226 156.157 33.8739C156.16 33.7421 156.211 33.6157 156.3 33.5185C156.407 33.3966 156.536 33.2956 156.68 33.2206C156.943 33.0856 157.231 33.0038 157.525 32.98C157.82 32.9561 158.117 32.9908 158.398 33.0818C158.567 33.1456 158.721 33.2436 158.85 33.3695C158.966 33.4645 159.061 33.5824 159.129 33.7159C159.197 33.8493 159.236 33.9953 159.244 34.1447C159.243 34.4197 159.209 34.6937 159.142 34.9605C159.072 35.2415 158.986 35.5184 158.884 35.7898C158.782 36.0707 158.674 36.3449 158.544 36.6157C158.415 36.8865 158.327 37.12 158.232 37.3163L158.018 37.7767C157.964 37.8884 157.947 37.9256 157.977 37.8816C158.769 36.7883 159.288 36.0876 159.536 35.7728L160.283 34.8792C160.66 34.4049 161.094 33.9796 161.577 33.6132C162.209 33.1867 162.707 32.9735 163.071 32.9735C163.382 32.9659 163.693 33.0128 163.988 33.1123C164.229 33.1983 164.451 33.3319 164.64 33.5049C164.832 33.6799 164.984 33.8942 165.085 34.1331C165.187 34.3721 165.235 34.63 165.227 34.8894C165.219 35.4947 165.089 36.0922 164.844 36.6461C164.589 37.2588 164.365 37.753 164.164 38.1321C163.964 38.5112 163.794 38.8971 163.625 39.2864C163.088 40.4711 162.823 41.3173 162.823 41.8725C162.823 42.1162 163.013 42.2346 163.4 42.2346C163.683 42.2377 163.963 42.1727 164.215 42.0451C164.362 41.9542 164.522 41.889 164.691 41.8521C164.721 41.8476 164.752 41.8502 164.782 41.8598C164.811 41.8694 164.838 41.8857 164.859 41.9075C164.881 41.9292 164.898 41.9557 164.907 41.9849C164.917 42.0141 164.92 42.0452 164.915 42.0755C164.907 42.4017 164.812 42.72 164.642 42.9986C164.472 43.2771 164.231 43.5063 163.944 43.6631C163.597 43.9234 163.181 44.0754 162.748 44.0997C162.443 44.1073 162.138 44.0673 161.845 43.9813C161.609 43.9044 161.392 43.7773 161.21 43.6089C160.996 43.4085 160.828 43.1637 160.719 42.8918C160.61 42.6198 160.562 42.3274 160.579 42.0349C160.638 40.9644 160.903 39.9152 161.36 38.9445C161.735 38.1028 162.002 37.5251 162.161 37.2114L162.524 36.4566C162.712 36.1255 162.828 35.7588 162.864 35.3802C162.884 35.1229 162.681 34.9943 162.297 34.9943Z" fill="white"/>
<path d="M170.772 42.0211C170.959 42.0211 171.05 42.143 171.05 42.3833C171.028 42.7555 170.873 43.1074 170.612 43.3751C170.401 43.6202 170.136 43.8146 169.839 43.9435C169.541 44.0725 169.218 44.1327 168.894 44.1198C168.54 44.1488 168.186 44.0664 167.881 43.8843C167.577 43.7021 167.337 43.4293 167.196 43.1043C167.075 42.8367 167.017 42.5448 167.026 42.2513C167.033 41.875 167.091 41.5015 167.2 41.141C167.32 40.7326 167.466 40.3027 167.638 39.8514C167.814 39.4012 168.004 38.9442 168.212 38.4974L168.775 37.1434C169.19 36.1415 169.397 35.4814 169.397 35.1633C169.416 34.9471 169.381 34.7295 169.295 34.5303C169.237 34.4374 169.162 34.356 169.074 34.2899L168.86 34.141C168.823 34.1092 168.794 34.0689 168.776 34.0235C168.757 33.9781 168.75 33.9291 168.755 33.8804C168.757 33.7485 168.808 33.6222 168.898 33.525C169.005 33.4031 169.134 33.3021 169.278 33.2271C169.626 33.056 170.01 32.9712 170.398 32.98C171.447 32.98 171.971 33.253 171.971 33.7991C171.944 34.5543 171.773 35.2975 171.468 35.9892C171.131 36.8083 170.846 37.4695 170.612 37.9727L169.974 39.4418C169.502 40.5216 169.268 41.2967 169.268 41.774C169.259 41.8375 169.264 41.9021 169.285 41.9629C169.305 42.0237 169.339 42.079 169.385 42.1243C169.43 42.1696 169.486 42.2038 169.547 42.224C169.608 42.2443 169.673 42.2502 169.736 42.2411C169.974 42.2545 170.212 42.2151 170.432 42.126C170.538 42.0691 170.653 42.0334 170.772 42.0211ZM172.962 30.5124C172.809 30.6766 172.629 30.8129 172.429 30.9152C172.233 31.0189 172.018 31.0844 171.797 31.1081C171.584 31.1328 171.367 31.0976 171.173 31.0066C170.977 30.9138 170.805 30.7798 170.667 30.6139C170.388 30.3227 170.225 29.94 170.208 29.5375C170.189 29.2545 170.25 28.9718 170.385 28.7218C170.498 28.5447 170.649 28.3944 170.826 28.2817C171.109 28.0782 171.446 27.9607 171.794 27.9432C172.03 27.9378 172.266 27.9593 172.497 28.0075C172.664 28.0505 172.821 28.1227 172.962 28.2208C173.116 28.3062 173.245 28.43 173.337 28.5802C173.429 28.7303 173.48 28.9015 173.485 29.0772C173.494 29.3648 173.446 29.6513 173.343 29.92C173.247 30.1278 173.119 30.3187 172.962 30.4853V30.5124Z" fill="white"/>
<path d="M173.74 40.3287C173.756 39.7036 173.854 39.0833 174.032 38.4839C174.211 37.8785 174.455 37.2941 174.759 36.7407C175.06 36.1977 175.422 35.6911 175.839 35.231C176.242 34.7807 176.698 34.3806 177.197 34.0395C178.14 33.3617 179.271 32.9927 180.433 32.9834C181.602 32.9834 182.393 33.4505 182.81 34.378C182.964 34.7358 183.035 35.1233 183.018 35.5119C183.013 35.9077 182.943 36.2999 182.81 36.673C182.691 37.0053 182.53 37.3215 182.332 37.614C181.897 38.2413 181.459 38.5539 181.017 38.5516C180.817 38.5686 180.615 38.541 180.427 38.4708C180.238 38.4005 180.068 38.2894 179.927 38.1454C179.827 38.0372 179.756 37.9048 179.722 37.7613C179.688 37.6177 179.692 37.4678 179.734 37.3263C179.765 37.2219 179.834 37.1327 179.927 37.0758C180.071 36.9736 180.206 36.8604 180.332 36.7373C180.783 36.2871 181.043 35.6811 181.058 35.0448C181.058 34.6048 180.804 34.3678 180.247 34.3678C179.69 34.3678 179.024 34.7063 178.369 35.3833C177.371 36.4227 176.668 37.7076 176.331 39.1067C175.992 40.4268 176.056 41.3915 176.525 42.0008C176.657 42.1732 176.829 42.3114 177.025 42.4039C177.222 42.4964 177.438 42.5404 177.656 42.5323C178.51 42.519 179.335 42.2198 179.999 41.6826C180.205 41.5246 180.391 41.3416 180.552 41.1377C180.695 40.9549 180.827 40.8601 180.95 40.8601C181.011 40.862 181.07 40.8791 181.123 40.9099C181.176 40.9406 181.22 40.984 181.252 41.0361C181.34 41.1704 181.384 41.3291 181.377 41.4897C181.355 41.9589 181.152 42.4013 180.81 42.7252C180.349 43.1744 179.803 43.5281 179.204 43.7657C178.605 44.0034 177.964 44.1202 177.32 44.1096C176.158 44.1096 175.261 43.779 174.627 43.1179C174.012 42.4612 173.71 41.5337 173.74 40.3287Z" fill="white"/>
<path d="M129.854 39.5245V39.2165C129.931 37.1203 130.486 35.0692 131.477 33.2184C132.316 31.5896 133.5 30.162 134.947 29.0346C136.326 27.9853 137.664 27.4606 138.981 27.4606C139.426 27.4385 139.871 27.5185 140.28 27.6946C140.689 27.8706 141.052 28.138 141.341 28.4761C141.842 29.0962 142.103 29.8742 142.078 30.6695C142.048 31.7893 141.647 32.8675 140.937 33.7363C140.567 34.2539 140.085 34.6828 139.528 34.9921C139.327 35.1084 139.101 35.1735 138.869 35.1817C138.675 35.1842 138.483 35.1401 138.309 35.053C138.143 34.972 137.992 34.8645 137.861 34.7348C137.641 34.5439 137.501 34.2785 137.467 33.9902C137.457 33.9061 137.468 33.8209 137.497 33.7416C137.527 33.6622 137.574 33.5908 137.637 33.5332C138.805 32.6937 139.597 31.8317 140.014 30.9471C140.171 30.6314 140.255 30.2842 140.258 29.9316C140.258 29.2547 139.919 28.8992 139.277 28.8992C138.251 28.8992 137.193 29.4566 136.102 30.5714C135.02 31.6972 134.153 33.0092 133.541 34.4437C132.877 35.8227 132.489 37.3173 132.397 38.8441V39.2503C132.397 40.8446 132.737 41.894 133.416 42.3882C133.668 42.5706 133.974 42.6647 134.285 42.6556C134.609 42.6588 134.931 42.6155 135.243 42.5269C135.551 42.4422 135.851 42.3288 136.139 42.1884C136.798 41.818 137.42 41.3862 137.997 40.8988C138.033 40.8554 138.08 40.8219 138.133 40.8013C138.187 40.7808 138.244 40.7739 138.301 40.7814C138.357 40.7888 138.411 40.8102 138.457 40.8438C138.503 40.8773 138.539 40.9218 138.564 40.9732C138.691 41.1621 138.757 41.3854 138.754 41.613C138.781 41.8971 138.724 42.183 138.591 42.4355C138.424 42.6313 138.234 42.8053 138.024 42.9534C137.719 43.173 137.391 43.3592 137.046 43.5086C136.218 43.8898 135.319 44.0928 134.407 44.1043C133.7 44.1288 132.994 44.0221 132.326 43.7895C131.819 43.5924 131.363 43.2848 130.991 42.8891C130.233 42.0655 129.854 40.9439 129.854 39.5245Z" fill="#00A89C"/>
<path d="M142.097 43.5716C141.905 43.3677 141.757 43.127 141.662 42.8641C141.546 42.5385 141.49 42.1942 141.499 41.8487C141.52 41.3296 141.608 40.8155 141.76 40.3187C141.934 39.6823 142.158 38.9647 142.44 38.1388L143.339 35.4884C144.614 31.7943 145.351 28.9408 145.55 26.9279C145.611 26.3322 145.89 26.0343 146.423 26.0343C146.712 26.0225 146.996 26.1045 147.234 26.2679C147.414 26.3777 147.563 26.5306 147.668 26.7128C147.773 26.8949 147.831 27.1004 147.835 27.3104C147.806 27.7823 147.738 28.251 147.632 28.7118C147.509 29.2601 147.352 29.8593 147.16 30.5092C146.967 31.1591 146.741 31.8462 146.48 32.5706L145.02 36.9101C144.174 39.3653 143.75 40.9505 143.75 41.6659C143.75 42.0518 143.907 42.2413 144.222 42.2413C144.505 42.2444 144.785 42.1794 145.037 42.0518C145.183 41.9604 145.344 41.8951 145.513 41.8588C145.543 41.8542 145.574 41.8568 145.604 41.8664C145.633 41.8761 145.66 41.8924 145.681 41.9141C145.703 41.9359 145.719 41.9624 145.729 41.9916C145.739 42.0208 145.741 42.0518 145.737 42.0822C145.728 42.4084 145.634 42.7266 145.464 43.0052C145.293 43.2838 145.053 43.5129 144.766 43.6697C144.42 43.9294 144.006 44.0814 143.574 44.1064C143.279 44.1159 142.984 44.0724 142.704 43.9778C142.473 43.8904 142.265 43.7514 142.097 43.5716Z" fill="#00A89C"/>
<path d="M151.591 42.021C151.775 42.021 151.87 42.1429 151.87 42.3832C151.848 42.7554 151.692 43.1074 151.432 43.375C151.219 43.6201 150.954 43.8142 150.656 43.9432C150.358 44.0721 150.035 44.1324 149.71 44.1197C149.356 44.1487 149.002 44.0664 148.697 43.8842C148.393 43.7021 148.153 43.4293 148.012 43.1042C147.892 42.8361 147.834 42.5446 147.843 42.2512C147.849 41.8747 147.908 41.5009 148.019 41.141C148.135 40.7325 148.281 40.3026 148.457 39.8513C148.63 39.4011 148.821 38.9442 149.028 38.4974L149.595 37.1434C150.005 36.1414 150.211 35.4814 150.213 35.1632C150.232 34.947 150.197 34.7294 150.111 34.5302C150.054 34.4376 149.98 34.3561 149.894 34.2899L149.68 34.1409C149.641 34.1098 149.611 34.0698 149.592 34.0243C149.573 33.9788 149.566 33.9293 149.571 33.8803C149.575 33.7481 149.627 33.6218 149.717 33.5249C149.823 33.4015 149.952 33.3002 150.097 33.227C150.445 33.0547 150.83 32.9698 151.218 32.9799C152.264 32.9799 152.787 33.253 152.787 33.7991C152.762 34.5545 152.591 35.298 152.284 35.9891C151.951 36.8083 151.667 37.4694 151.432 37.9727L150.797 39.4417C150.328 40.5215 150.091 41.2967 150.091 41.774C150.081 41.8377 150.087 41.9028 150.108 41.9639C150.128 42.025 150.163 42.0804 150.209 42.1258C150.255 42.1712 150.31 42.2053 150.372 42.2253C150.433 42.2453 150.499 42.2507 150.563 42.2411C150.795 42.2521 151.026 42.2129 151.242 42.126C151.35 42.0681 151.469 42.0324 151.591 42.021ZM153.782 30.5123C153.627 30.6759 153.446 30.8121 153.245 30.9151C153.05 31.0196 152.837 31.0852 152.617 31.1081C152.403 31.1331 152.187 31.0979 151.992 31.0065C151.795 30.9147 151.621 30.7806 151.483 30.6139C151.204 30.3226 151.041 29.9399 151.024 29.5375C151.005 29.2544 151.067 28.9717 151.201 28.7217C151.315 28.5444 151.467 28.3942 151.646 28.2816C151.927 28.0779 152.263 27.9603 152.61 27.9432C152.847 27.9379 153.084 27.9595 153.316 28.0075C153.483 28.0511 153.64 28.1233 153.782 28.2207C153.936 28.3062 154.065 28.43 154.157 28.5801C154.248 28.7302 154.299 28.9015 154.305 29.0771C154.314 29.3651 154.265 29.6519 154.159 29.92C154.066 30.1281 153.938 30.3192 153.782 30.4852V30.5123Z" fill="#00A89C"/>
<path d="M162.297 34.9943C162.076 34.9943 161.764 35.2042 161.36 35.6273C160.955 36.0504 160.599 36.4329 160.3 36.7815L159.393 37.8681L157.641 40.092C157.227 40.875 156.903 41.5249 156.67 42.0417L156.093 43.2738C155.99 43.5046 155.859 43.7218 155.702 43.9203C155.646 43.9823 155.576 44.0312 155.499 44.0633C155.422 44.0955 155.338 44.1102 155.254 44.1065C155.068 44.1069 154.884 44.0724 154.711 44.005C154.546 43.9429 154.392 43.8549 154.256 43.7443C154.137 43.6581 154.039 43.5465 153.969 43.4176C153.899 43.2888 153.859 43.146 153.852 42.9996C153.891 42.7774 153.97 42.564 154.086 42.3701L154.49 41.5069C154.619 41.253 154.768 40.9247 154.938 40.5287L155.539 39.0698C156.379 36.9779 156.799 35.6239 156.799 35.0078C156.81 34.8699 156.786 34.7315 156.729 34.6051C156.673 34.4787 156.586 34.3682 156.476 34.2835L156.263 34.1345C156.225 34.1027 156.196 34.0624 156.178 34.017C156.16 33.9717 156.153 33.9226 156.157 33.8739C156.16 33.7421 156.211 33.6157 156.3 33.5185C156.407 33.3966 156.536 33.2956 156.68 33.2206C156.943 33.0856 157.231 33.0038 157.525 32.98C157.82 32.9561 158.117 32.9908 158.398 33.0818C158.567 33.1456 158.721 33.2436 158.85 33.3695C158.966 33.4645 159.061 33.5824 159.129 33.7159C159.197 33.8493 159.236 33.9953 159.244 34.1447C159.243 34.4197 159.209 34.6937 159.142 34.9605C159.072 35.2415 158.986 35.5184 158.884 35.7898C158.782 36.0707 158.674 36.3449 158.544 36.6157C158.415 36.8865 158.327 37.12 158.232 37.3163L158.018 37.7767C157.964 37.8884 157.947 37.9256 157.977 37.8816C158.769 36.7883 159.288 36.0876 159.536 35.7728L160.283 34.8792C160.66 34.4049 161.094 33.9796 161.577 33.6132C162.209 33.1867 162.707 32.9735 163.071 32.9735C163.382 32.9659 163.693 33.0128 163.988 33.1123C164.229 33.1983 164.451 33.3319 164.64 33.5049C164.832 33.6799 164.984 33.8942 165.085 34.1331C165.187 34.3721 165.235 34.63 165.227 34.8894C165.219 35.4947 165.089 36.0922 164.844 36.6461C164.589 37.2588 164.365 37.753 164.164 38.1321C163.964 38.5112 163.794 38.8971 163.625 39.2864C163.088 40.4711 162.823 41.3173 162.823 41.8725C162.823 42.1162 163.013 42.2346 163.4 42.2346C163.683 42.2377 163.963 42.1727 164.215 42.0451C164.362 41.9542 164.522 41.889 164.691 41.8521C164.721 41.8476 164.752 41.8502 164.782 41.8598C164.811 41.8694 164.838 41.8857 164.859 41.9075C164.881 41.9292 164.898 41.9557 164.907 41.9849C164.917 42.0141 164.92 42.0452 164.915 42.0755C164.907 42.4017 164.812 42.72 164.642 42.9986C164.472 43.2771 164.231 43.5063 163.944 43.6631C163.597 43.9234 163.181 44.0754 162.748 44.0997C162.443 44.1073 162.138 44.0673 161.845 43.9813C161.609 43.9044 161.392 43.7773 161.21 43.6089C160.996 43.4085 160.828 43.1637 160.719 42.8918C160.61 42.6198 160.562 42.3274 160.579 42.0349C160.638 40.9644 160.903 39.9152 161.36 38.9445C161.735 38.1028 162.002 37.5251 162.161 37.2114L162.524 36.4566C162.712 36.1255 162.828 35.7588 162.864 35.3802C162.884 35.1229 162.681 34.9943 162.297 34.9943Z" fill="#00A89C"/>
<path d="M170.772 42.0211C170.959 42.0211 171.05 42.143 171.05 42.3833C171.028 42.7555 170.873 43.1074 170.612 43.3751C170.401 43.6202 170.136 43.8146 169.839 43.9435C169.541 44.0725 169.218 44.1327 168.894 44.1198C168.54 44.1488 168.186 44.0664 167.881 43.8843C167.577 43.7021 167.337 43.4293 167.196 43.1043C167.075 42.8367 167.017 42.5448 167.026 42.2513C167.033 41.875 167.091 41.5015 167.2 41.141C167.32 40.7326 167.466 40.3027 167.638 39.8514C167.814 39.4012 168.004 38.9442 168.212 38.4974L168.775 37.1434C169.19 36.1415 169.397 35.4814 169.397 35.1633C169.416 34.9471 169.381 34.7295 169.295 34.5303C169.237 34.4374 169.162 34.356 169.074 34.2899L168.86 34.141C168.823 34.1092 168.794 34.0689 168.776 34.0235C168.757 33.9781 168.75 33.9291 168.755 33.8804C168.757 33.7485 168.808 33.6222 168.898 33.525C169.005 33.4031 169.134 33.3021 169.278 33.2271C169.626 33.056 170.01 32.9712 170.398 32.98C171.447 32.98 171.971 33.253 171.971 33.7991C171.944 34.5543 171.773 35.2975 171.468 35.9892C171.131 36.8083 170.846 37.4695 170.612 37.9727L169.974 39.4418C169.502 40.5216 169.268 41.2967 169.268 41.774C169.259 41.8375 169.264 41.9021 169.285 41.9629C169.305 42.0237 169.339 42.079 169.385 42.1243C169.43 42.1696 169.486 42.2038 169.547 42.224C169.608 42.2443 169.673 42.2502 169.736 42.2411C169.974 42.2545 170.212 42.2151 170.432 42.126C170.538 42.0691 170.653 42.0334 170.772 42.0211ZM172.962 30.5124C172.809 30.6766 172.629 30.8129 172.429 30.9152C172.233 31.0189 172.018 31.0844 171.797 31.1081C171.584 31.1328 171.367 31.0976 171.173 31.0066C170.977 30.9138 170.805 30.7798 170.667 30.6139C170.388 30.3227 170.225 29.94 170.208 29.5375C170.189 29.2545 170.25 28.9718 170.385 28.7218C170.498 28.5447 170.649 28.3944 170.826 28.2817C171.109 28.0782 171.446 27.9607 171.794 27.9432C172.03 27.9378 172.266 27.9593 172.497 28.0075C172.664 28.0505 172.821 28.1227 172.962 28.2208C173.116 28.3062 173.245 28.43 173.337 28.5802C173.429 28.7303 173.48 28.9015 173.485 29.0772C173.494 29.3648 173.446 29.6513 173.343 29.92C173.247 30.1278 173.119 30.3187 172.962 30.4853V30.5124Z" fill="#00A89C"/>
<path d="M173.74 40.3287C173.756 39.7036 173.854 39.0833 174.032 38.4839C174.211 37.8785 174.455 37.2941 174.759 36.7407C175.06 36.1977 175.422 35.6911 175.839 35.231C176.242 34.7807 176.698 34.3806 177.197 34.0395C178.14 33.3617 179.271 32.9927 180.433 32.9834C181.602 32.9834 182.393 33.4505 182.81 34.378C182.964 34.7358 183.035 35.1233 183.018 35.5119C183.013 35.9077 182.943 36.2999 182.81 36.673C182.691 37.0053 182.53 37.3215 182.332 37.614C181.897 38.2413 181.459 38.5539 181.017 38.5516C180.817 38.5686 180.615 38.541 180.427 38.4708C180.238 38.4005 180.068 38.2894 179.927 38.1454C179.827 38.0372 179.756 37.9048 179.722 37.7613C179.688 37.6177 179.692 37.4678 179.734 37.3263C179.765 37.2219 179.834 37.1327 179.927 37.0758C180.071 36.9736 180.206 36.8604 180.332 36.7373C180.783 36.2871 181.043 35.6811 181.058 35.0448C181.058 34.6048 180.804 34.3678 180.247 34.3678C179.69 34.3678 179.024 34.7063 178.369 35.3833C177.371 36.4227 176.668 37.7076 176.331 39.1067C175.992 40.4268 176.056 41.3915 176.525 42.0008C176.657 42.1732 176.829 42.3114 177.025 42.4039C177.222 42.4964 177.438 42.5404 177.656 42.5323C178.51 42.519 179.335 42.2198 179.999 41.6826C180.205 41.5246 180.391 41.3416 180.552 41.1377C180.695 40.9549 180.827 40.8601 180.95 40.8601C181.011 40.862 181.07 40.8791 181.123 40.9099C181.176 40.9406 181.22 40.984 181.252 41.0361C181.34 41.1704 181.384 41.3291 181.377 41.4897C181.355 41.9589 181.152 42.4013 180.81 42.7252C180.349 43.1744 179.803 43.5281 179.204 43.7657C178.605 44.0034 177.964 44.1202 177.32 44.1096C176.158 44.1096 175.261 43.779 174.627 43.1179C174.012 42.4612 173.71 41.5337 173.74 40.3287Z" fill="#00A89C"/>
<path d="M126.871 32.3164L0.00585938 32.9934V42.3832C0.00585938 42.3832 9.9656 36.7811 126.107 33.5587L126.871 32.3164Z" fill="#00A89C"/>
</svg>
