<svg width="16" height="16" viewBox="0 0 16 16" fill="none" xmlns="http://www.w3.org/2000/svg">
<path d="M10 13.997V10.397C10 10.0236 10 9.83696 9.92734 9.69435C9.86342 9.56891 9.76144 9.46692 9.63599 9.40301C9.49339 9.33034 9.3067 9.33034 8.93333 9.33034H7.06667C6.6933 9.33034 6.50661 9.33034 6.36401 9.40301C6.23857 9.46692 6.13658 9.56891 6.07266 9.69435C6 9.83696 6 10.0236 6 10.397V13.997M2 4.66368C2 5.76825 2.89543 6.66368 4 6.66368C5.10457 6.66368 6 5.76825 6 4.66368C6 5.76825 6.89543 6.66368 8 6.66368C9.10457 6.66368 10 5.76825 10 4.66368C10 5.76825 10.8954 6.66368 12 6.66368C13.1046 6.66368 14 5.76825 14 4.66368M4.13333 13.997H11.8667C12.6134 13.997 12.9868 13.997 13.272 13.8517C13.5229 13.7239 13.7268 13.5199 13.8547 13.269C14 12.9838 14 12.6104 14 11.8637V4.13034C14 3.38361 14 3.01024 13.8547 2.72502C13.7268 2.47414 13.5229 2.27017 13.272 2.14233C12.9868 1.99701 12.6134 1.99701 11.8667 1.99701H4.13333C3.3866 1.99701 3.01323 1.99701 2.72801 2.14233C2.47713 2.27017 2.27316 2.47414 2.14532 2.72502C2 3.01024 2 3.38361 2 4.13034V11.8637C2 12.6104 2 12.9838 2.14532 13.269C2.27316 13.5199 2.47713 13.7239 2.72801 13.8517C3.01323 13.997 3.3866 13.997 4.13333 13.997Z" stroke="white" stroke-width="1.5" stroke-linecap="round" stroke-linejoin="round"/>
</svg>
