<svg width="16" height="17" viewBox="0 0 16 17" fill="none" xmlns="http://www.w3.org/2000/svg">
<g clip-path="url(#clip0_402_7591)">
<path d="M5.33341 10.3303V12.997M10.6667 8.99699V12.997M8.00008 6.33032V12.997M13.3334 5.53032V12.4637C13.3334 13.5838 13.3334 14.1438 13.1154 14.5716C12.9237 14.948 12.6177 15.2539 12.2414 15.4457C11.8136 15.6637 11.2535 15.6637 10.1334 15.6637H5.86675C4.74664 15.6637 4.18659 15.6637 3.75877 15.4457C3.38244 15.2539 3.07648 14.948 2.88473 14.5716C2.66675 14.1438 2.66675 13.5838 2.66675 12.4637V5.53032C2.66675 4.41022 2.66675 3.85016 2.88473 3.42234C3.07648 3.04602 3.38244 2.74006 3.75877 2.54831C4.18659 2.33032 4.74664 2.33032 5.86675 2.33032H10.1334C11.2535 2.33032 11.8136 2.33032 12.2414 2.54831C12.6177 2.74006 12.9237 3.04602 13.1154 3.42234C13.3334 3.85016 13.3334 4.41022 13.3334 5.53032Z" stroke="white" stroke-width="1.5" stroke-linecap="round" stroke-linejoin="round"/>
</g>
<defs>
<clipPath id="clip0_402_7591">
<rect width="16" height="16" fill="white" transform="translate(0 0.997009)"/>
</clipPath>
</defs>
</svg>
