<svg width="16" height="17" viewBox="0 0 16 17" fill="none" xmlns="http://www.w3.org/2000/svg">
<g clip-path="url(#clip0_402_2229)">
<path d="M9.33341 2.51001V5.2637C9.33341 5.63707 9.33341 5.82376 9.40608 5.96636C9.46999 6.0918 9.57198 6.19379 9.69742 6.25771C9.84003 6.33037 10.0267 6.33037 10.4001 6.33037H13.1538M6.00008 10.997H10.0001M9.33341 2.33032H5.86675C4.74664 2.33032 4.18659 2.33032 3.75877 2.54831C3.38244 2.74006 3.07648 3.04602 2.88473 3.42234C2.66675 3.85016 2.66675 4.41022 2.66675 5.53032V12.4637C2.66675 13.5838 2.66675 14.1438 2.88473 14.5716C3.07648 14.948 3.38244 15.2539 3.75877 15.4457C4.18659 15.6637 4.74664 15.6637 5.86675 15.6637H10.1334C11.2535 15.6637 11.8136 15.6637 12.2414 15.4457C12.6177 15.2539 12.9237 14.948 13.1154 14.5716C13.3334 14.1438 13.3334 13.5838 13.3334 12.4637V6.33032L9.33341 2.33032Z" stroke="white" stroke-width="1.5" stroke-linecap="round" stroke-linejoin="round"/>
</g>
<defs>
<clipPath id="clip0_402_2229">
<rect width="16" height="16" fill="white" transform="translate(0 0.997009)"/>
</clipPath>
</defs>
</svg>
