<svg width="16" height="17" viewBox="0 0 16 17" fill="none" xmlns="http://www.w3.org/2000/svg">
<path d="M8 11.6637C9.10457 11.6637 10 10.7682 10 9.66366C10 8.5591 9.10457 7.66367 8 7.66367C6.89543 7.66367 6 8.5591 6 9.66366C6 10.7682 6.89543 11.6637 8 11.6637Z" stroke="white" stroke-width="1.5" stroke-linecap="round" stroke-linejoin="round"/>
<path d="M2 8.04038C2 7.65747 2 7.46602 2.04935 7.28971C2.09307 7.13353 2.16491 6.98664 2.26135 6.85625C2.37022 6.70905 2.52135 6.59151 2.82359 6.35643L7.34513 2.83967C7.57935 2.65751 7.69646 2.56642 7.82577 2.53141C7.93987 2.50052 8.06013 2.50052 8.17423 2.53141C8.30354 2.56642 8.42065 2.65751 8.65487 2.83968L13.1764 6.35643C13.4787 6.59151 13.6298 6.70905 13.7386 6.85625C13.8351 6.98664 13.9069 7.13353 13.9506 7.28971C14 7.46602 14 7.65747 14 8.04038V12.8637C14 13.6104 14 13.9838 13.8547 14.269C13.7268 14.5199 13.5229 14.7238 13.272 14.8517C12.9868 14.997 12.6134 14.997 11.8667 14.997H4.13333C3.3866 14.997 3.01323 14.997 2.72801 14.8517C2.47713 14.7238 2.27316 14.5199 2.14532 14.269C2 13.9838 2 13.6104 2 12.8637V8.04038Z" stroke="white" stroke-width="1.5" stroke-linecap="round" stroke-linejoin="round"/>
</svg>
