<svg width="16" height="17" viewBox="0 0 16 17" fill="none" xmlns="http://www.w3.org/2000/svg">
<path d="M10.6667 12.3304L14 8.99707M14 8.99707L10.6667 5.66374M14 8.99707H6M8 12.3304C8 12.5275 8 12.626 7.99268 12.7113C7.91655 13.5984 7.26324 14.3283 6.39002 14.5019C6.30602 14.5186 6.20801 14.5295 6.01223 14.5513L5.3313 14.6269C4.30832 14.7406 3.7968 14.7974 3.39044 14.6674C2.84862 14.494 2.40628 14.0981 2.17412 13.5787C2 13.1892 2 12.6746 2 11.6453V6.34887C2 5.31958 2 4.80494 2.17412 4.41542C2.40628 3.89606 2.84862 3.50014 3.39044 3.32676C3.79681 3.19672 4.3083 3.25355 5.33129 3.36722L6.01223 3.44288C6.20808 3.46464 6.306 3.47552 6.39002 3.49222C7.26324 3.66584 7.91655 4.39576 7.99268 5.28281C8 5.36816 8 5.46669 8 5.66374" stroke="white" stroke-width="1.5" stroke-linecap="round" stroke-linejoin="round"/>
</svg>
