<svg width="16" height="17" viewBox="0 0 16 17" fill="none" xmlns="http://www.w3.org/2000/svg">
<path d="M7.99992 8.99703H8.00325M11.3333 8.99703H11.3366M4.66659 8.99703H4.66992M3.46659 5.6637H12.5333C13.28 5.6637 13.6534 5.6637 13.9386 5.80902C14.1895 5.93685 14.3934 6.14083 14.5213 6.39171C14.6666 6.67692 14.6666 7.05029 14.6666 7.79703V10.197C14.6666 10.9438 14.6666 11.3171 14.5213 11.6023C14.3934 11.8532 14.1895 12.0572 13.9386 12.185C13.6534 12.3304 13.28 12.3304 12.5333 12.3304H3.46659C2.71985 12.3304 2.34648 12.3304 2.06126 12.185C1.81038 12.0572 1.60641 11.8532 1.47858 11.6023C1.33325 11.3171 1.33325 10.9438 1.33325 10.197V7.79703C1.33325 7.05029 1.33325 6.67692 1.47858 6.39171C1.60641 6.14083 1.81038 5.93685 2.06126 5.80902C2.34648 5.6637 2.71985 5.6637 3.46659 5.6637ZM8.16659 8.99703C8.16659 9.08908 8.09197 9.1637 7.99992 9.1637C7.90787 9.1637 7.83325 9.08908 7.83325 8.99703C7.83325 8.90498 7.90787 8.83036 7.99992 8.83036C8.09197 8.83036 8.16659 8.90498 8.16659 8.99703ZM11.4999 8.99703C11.4999 9.08908 11.4253 9.1637 11.3333 9.1637C11.2412 9.1637 11.1666 9.08908 11.1666 8.99703C11.1666 8.90498 11.2412 8.83036 11.3333 8.83036C11.4253 8.83036 11.4999 8.90498 11.4999 8.99703ZM4.83325 8.99703C4.83325 9.08908 4.75863 9.1637 4.66659 9.1637C4.57454 9.1637 4.49992 9.08908 4.49992 8.99703C4.49992 8.90498 4.57454 8.83036 4.66659 8.83036C4.75863 8.83036 4.83325 8.90498 4.83325 8.99703Z" stroke="white" stroke-width="1.5" stroke-linecap="round" stroke-linejoin="round"/>
</svg>
