<svg width="16" height="17" viewBox="0 0 16 17" fill="none" xmlns="http://www.w3.org/2000/svg">
<path d="M9.03367 4.99609H2.66667C1.74619 4.99609 1 4.2499 1 3.32943C1 2.40895 1.74619 1.66276 2.66667 1.66276H9.03367M4.96633 12.3294H11.3333C12.2538 12.3294 13 11.5832 13 10.6628C13 9.74229 12.2538 8.99609 11.3333 8.99609H4.96633M1 10.6628C1 11.9514 2.04467 12.9961 3.33333 12.9961C4.622 12.9961 5.66667 11.9514 5.66667 10.6628C5.66667 9.3741 4.622 8.32943 3.33333 8.32943C2.04467 8.32943 1 9.3741 1 10.6628ZM13 3.32943C13 4.61809 11.9553 5.66276 10.6667 5.66276C9.378 5.66276 8.33333 4.61809 8.33333 3.32943C8.33333 2.04076 9.378 0.996094 10.6667 0.996094C11.9553 0.996094 13 2.04076 13 3.32943Z" stroke="white" stroke-width="1.4" stroke-linecap="round" stroke-linejoin="round"/>
</svg>
