<svg width="16" height="17" viewBox="0 0 16 17" fill="none" xmlns="http://www.w3.org/2000/svg">
<g clip-path="url(#clip0_402_35474)">
<path d="M6.26344 13.9111L6.65307 14.7874C6.7689 15.0482 6.95792 15.2698 7.19722 15.4254C7.43652 15.5809 7.71581 15.6637 8.00122 15.6637C8.28663 15.6637 8.56592 15.5809 8.80522 15.4254C9.04452 15.2698 9.23354 15.0482 9.34937 14.7874L9.739 13.9111C9.8777 13.6001 10.111 13.3409 10.4057 13.1703C10.7022 12.9993 11.0452 12.9264 11.3857 12.9622L12.339 13.0637C12.6228 13.0937 12.9092 13.0407 13.1635 12.9112C13.4177 12.7817 13.629 12.5812 13.7716 12.334C13.9144 12.087 13.9824 11.8038 13.9674 11.5189C13.9524 11.234 13.8551 10.9595 13.6871 10.7288L13.1227 9.95329C12.9217 9.67508 12.8143 9.3402 12.816 8.99699C12.816 8.65471 12.9244 8.32122 13.1257 8.0444L13.6901 7.26884C13.858 7.03816 13.9554 6.7637 13.9704 6.47877C13.9854 6.19384 13.9173 5.91068 13.7746 5.66366C13.632 5.41648 13.4207 5.21598 13.1664 5.08647C12.9121 4.95697 12.6257 4.90401 12.342 4.93403L11.3886 5.03551C11.0482 5.07126 10.7052 4.9984 10.4086 4.82736C10.1134 4.65582 9.88001 4.39523 9.74196 4.08292L9.34937 3.20662C9.23354 2.94577 9.04452 2.72413 8.80522 2.56859C8.56592 2.41304 8.28663 2.33028 8.00122 2.33032C7.71581 2.33028 7.43652 2.41304 7.19722 2.56859C6.95792 2.72413 6.7689 2.94577 6.65307 3.20662L6.26344 4.08292C6.1254 4.39523 5.89202 4.65582 5.59678 4.82736C5.30025 4.9984 4.95722 5.07126 4.61678 5.03551L3.66048 4.93403C3.3767 4.90401 3.09031 4.95697 2.83602 5.08647C2.58174 5.21598 2.37049 5.41648 2.22789 5.66366C2.0851 5.91068 2.01708 6.19384 2.03207 6.47877C2.04705 6.7637 2.14441 7.03816 2.31233 7.26884L2.87678 8.0444C3.07807 8.32122 3.18647 8.65471 3.18641 8.99699C3.18647 9.33926 3.07807 9.67276 2.87678 9.94958L2.31233 10.7251C2.14441 10.9558 2.04705 11.2303 2.03207 11.5152C2.01708 11.8001 2.0851 12.0833 2.22789 12.3303C2.37063 12.5774 2.58191 12.7778 2.83615 12.9073C3.0904 13.0367 3.37672 13.0898 3.66048 13.06L4.61381 12.9585C4.95426 12.9227 5.29729 12.9956 5.59381 13.1666C5.89017 13.3377 6.12462 13.5983 6.26344 13.9111Z" stroke="white" stroke-width="1.5" stroke-linecap="round" stroke-linejoin="round"/>
<path d="M8.00003 10.997C9.1046 10.997 10 10.1016 10 8.99699C10 7.89242 9.1046 6.99699 8.00003 6.99699C6.89546 6.99699 6.00003 7.89242 6.00003 8.99699C6.00003 10.1016 6.89546 10.997 8.00003 10.997Z" stroke="white" stroke-width="1.5" stroke-linecap="round" stroke-linejoin="round"/>
</g>
<defs>
<clipPath id="clip0_402_35474">
<rect width="16" height="16" fill="white" transform="translate(0 0.997009)"/>
</clipPath>
</defs>
</svg>
