<svg width="16" height="17" viewBox="0 0 16 17" fill="none" xmlns="http://www.w3.org/2000/svg">
<g clip-path="url(#clip0_402_42689)">
<path d="M14 8.33032L8.93726 3.26758C8.59135 2.92168 8.4184 2.74873 8.21657 2.62504C8.03762 2.51538 7.84254 2.43458 7.63846 2.38558C7.40829 2.33032 7.16369 2.33032 6.67452 2.33032L4 2.33032M2 6.79699L2 8.11333C2 8.43945 2 8.60251 2.03684 8.75596C2.0695 8.89201 2.12337 9.02207 2.19648 9.14137C2.27894 9.27592 2.39424 9.39123 2.62484 9.62183L7.82484 14.8218C8.35286 15.3499 8.61687 15.6139 8.92131 15.7128C9.1891 15.7998 9.47757 15.7998 9.74536 15.7128C10.0498 15.6139 10.3138 15.3499 10.8418 14.8218L12.4915 13.1722C13.0195 12.6441 13.2835 12.3801 13.3825 12.0757C13.4695 11.8079 13.4695 11.5194 13.3825 11.2516C13.2835 10.9472 13.0195 10.6832 12.4915 10.1552L7.62484 5.28849C7.39424 5.05789 7.27894 4.94259 7.14438 4.86014C7.02508 4.78703 6.89502 4.73316 6.75898 4.7005C6.60553 4.66366 6.44247 4.66366 6.11634 4.66366H4.13333C3.3866 4.66366 3.01323 4.66366 2.72801 4.80898C2.47713 4.93681 2.27316 5.14079 2.14532 5.39167C2 5.67688 2 6.05025 2 6.79699Z" stroke="white" stroke-width="1.5" stroke-linecap="round" stroke-linejoin="round"/>
</g>
<defs>
<clipPath id="clip0_402_42689">
<rect width="16" height="16" fill="white" transform="translate(0 0.997009)"/>
</clipPath>
</defs>
</svg>
