<svg width="16" height="17" viewBox="0 0 16 17" fill="none" xmlns="http://www.w3.org/2000/svg">
<path d="M10.6666 11.6637V5.13034C10.6666 4.38361 10.6666 4.01024 10.5213 3.72502C10.3934 3.47414 10.1895 3.27017 9.93857 3.14233C9.65336 2.99701 9.27999 2.99701 8.53325 2.99701H3.46659C2.71985 2.99701 2.34648 2.99701 2.06126 3.14233C1.81038 3.27017 1.60641 3.47414 1.47858 3.72502C1.33325 4.01024 1.33325 4.38361 1.33325 5.13034V9.53034C1.33325 10.2771 1.33325 10.6504 1.47858 10.9357C1.60641 11.1865 1.81038 11.3905 2.06126 11.5184C2.34648 11.6637 2.71985 11.6637 3.46659 11.6637H10.6666ZM10.6666 11.6637H13.5999C13.9733 11.6637 14.16 11.6637 14.3026 11.591C14.428 11.5271 14.53 11.4251 14.5939 11.2997C14.6666 11.1571 14.6666 10.9704 14.6666 10.597V8.77217C14.6666 8.60911 14.6666 8.52758 14.6482 8.45085C14.6318 8.38283 14.6049 8.3178 14.5683 8.25815C14.5271 8.19088 14.4695 8.13322 14.3542 8.01792L12.979 6.64276C12.8637 6.52746 12.8061 6.46981 12.7388 6.42858C12.6791 6.39203 12.6141 6.36509 12.5461 6.34876C12.4693 6.33034 12.3878 6.33034 12.2248 6.33034H10.6666M5.99992 13.3303C5.99992 14.2508 5.25373 14.997 4.33325 14.997C3.41278 14.997 2.66659 14.2508 2.66659 13.3303C2.66659 12.4099 3.41278 11.6637 4.33325 11.6637C5.25373 11.6637 5.99992 12.4099 5.99992 13.3303ZM13.3333 13.3303C13.3333 14.2508 12.5871 14.997 11.6666 14.997C10.7461 14.997 9.99992 14.2508 9.99992 13.3303C9.99992 12.4099 10.7461 11.6637 11.6666 11.6637C12.5871 11.6637 13.3333 12.4099 13.3333 13.3303Z" stroke="white" stroke-width="1.5" stroke-linecap="round" stroke-linejoin="round"/>
</svg>
