<svg width="16" height="17" viewBox="0 0 16 17" fill="none" xmlns="http://www.w3.org/2000/svg">
<g clip-path="url(#clip0_402_8115)">
<path d="M2.6666 15.5419C3.06832 15.6637 3.61091 15.6637 4.53325 15.6637H11.4666C12.3889 15.6637 12.9315 15.6637 13.3332 15.5419M2.6666 15.5419C2.58047 15.5158 2.50081 15.4842 2.42527 15.4457C2.04895 15.2539 1.74299 14.948 1.55124 14.5716C1.33325 14.1438 1.33325 13.5838 1.33325 12.4637V5.53032C1.33325 4.41022 1.33325 3.85016 1.55124 3.42234C1.74299 3.04602 2.04895 2.74006 2.42527 2.54831C2.85309 2.33032 3.41315 2.33032 4.53325 2.33032H11.4666C12.5867 2.33032 13.1467 2.33032 13.5746 2.54831C13.9509 2.74006 14.2569 3.04602 14.4486 3.42234C14.6666 3.85016 14.6666 4.41022 14.6666 5.53032V12.4637C14.6666 13.5838 14.6666 14.1438 14.4486 14.5716C14.2569 14.948 13.9509 15.2539 13.5746 15.4457C13.499 15.4842 13.4194 15.5158 13.3332 15.5419M2.6666 15.5419C2.66682 15.0024 2.67006 14.7169 2.71782 14.4767C2.92824 13.4189 3.75517 12.592 4.81301 12.3816C5.07061 12.3303 5.38038 12.3303 5.99992 12.3303H9.99992C10.6195 12.3303 10.9292 12.3303 11.1868 12.3816C12.2447 12.592 13.0716 13.4189 13.282 14.4767C13.3298 14.7169 13.333 15.0024 13.3332 15.5419M10.6666 7.33032C10.6666 8.80308 9.47268 9.99699 7.99992 9.99699C6.52716 9.99699 5.33325 8.80308 5.33325 7.33032C5.33325 5.85756 6.52716 4.66366 7.99992 4.66366C9.47268 4.66366 10.6666 5.85756 10.6666 7.33032Z" stroke="white" stroke-width="1.5" stroke-linecap="round" stroke-linejoin="round"/>
</g>
<defs>
<clipPath id="clip0_402_8115">
<rect width="16" height="16" fill="white" transform="translate(0 0.997009)"/>
</clipPath>
</defs>
</svg>
