<svg xmlns="http://www.w3.org/2000/svg" width="1200" height="800" viewBox="0 0 1200 800">
  <defs>
    <linearGradient id="bg-gradient" x1="0%" y1="0%" x2="0%" y2="100%">
      <stop offset="0%" style="stop-color:#001A41;stop-opacity:1" />
      <stop offset="100%" style="stop-color:#003366;stop-opacity:1" />
    </linearGradient>
    <pattern id="grid-pattern" x="0" y="0" width="40" height="40" patternUnits="userSpaceOnUse">
      <rect x="0" y="0" width="40" height="40" fill="none" />
      <path d="M 0,0 L 40,40 M 40,0 L 0,40" stroke="rgba(255,255,255,0.05)" stroke-width="0.5" />
    </pattern>
  </defs>
  <rect width="1200" height="800" fill="url(#bg-gradient)" />
  <rect width="1200" height="800" fill="url(#grid-pattern)" />
  
  <!-- Random small dots for a solar panel look -->
  <g fill="rgba(255,255,255,0.15)">
    <circle cx="120" cy="100" r="1.5" />
    <circle cx="240" cy="180" r="1.5" />
    <circle cx="360" cy="90" r="1.5" />
    <circle cx="480" cy="210" r="1.5" />
    <circle cx="600" cy="130" r="1.5" />
    <circle cx="720" cy="230" r="1.5" />
    <circle cx="840" cy="150" r="1.5" />
    <circle cx="960" cy="240" r="1.5" />
    <circle cx="1080" cy="170" r="1.5" />
    
    <circle cx="150" cy="300" r="1.5" />
    <circle cx="290" cy="380" r="1.5" />
    <circle cx="410" cy="290" r="1.5" />
    <circle cx="530" cy="410" r="1.5" />
    <circle cx="650" cy="330" r="1.5" />
    <circle cx="770" cy="430" r="1.5" />
    <circle cx="890" cy="350" r="1.5" />
    <circle cx="1010" cy="440" r="1.5" />
    <circle cx="1130" cy="370" r="1.5" />
    
    <circle cx="180" cy="500" r="1.5" />
    <circle cx="320" cy="580" r="1.5" />
    <circle cx="440" cy="490" r="1.5" />
    <circle cx="560" cy="610" r="1.5" />
    <circle cx="680" cy="530" r="1.5" />
    <circle cx="800" cy="630" r="1.5" />
    <circle cx="920" cy="550" r="1.5" />
    <circle cx="1040" cy="640" r="1.5" />
    <circle cx="1160" cy="570" r="1.5" />
    
    <circle cx="210" cy="700" r="1.5" />
    <circle cx="350" cy="780" r="1.5" />
    <circle cx="470" cy="690" r="1.5" />
    <circle cx="590" cy="770" r="1.5" />
    <circle cx="710" cy="730" r="1.5" />
    <circle cx="830" cy="780" r="1.5" />
    <circle cx="950" cy="750" r="1.5" />
    <circle cx="1070" cy="790" r="1.5" />
    <circle cx="1190" cy="770" r="1.5" />
  </g>
  
  <!-- Larger solar panel connections -->
  <g stroke="rgba(0,150,250,0.1)" stroke-width="1">
    <line x1="100" y1="50" x2="300" y2="250" />
    <line x1="400" y1="150" x2="600" y2="350" />
    <line x1="700" y1="250" x2="900" y2="450" />
    <line x1="1000" y1="350" x2="1200" y2="550" />
    
    <line x1="50" y1="400" x2="250" y2="600" />
    <line x1="350" y1="500" x2="550" y2="700" />
    <line x1="650" y1="600" x2="850" y2="800" />
    <line x1="950" y1="100" x2="1150" y2="300" />
  </g>
</svg> 